<?xml version="1.0" standalone="no"?><!DOCTYPE svg PUBLIC "-//W3C//DTD SVG 1.1//EN" "http://www.w3.org/Graphics/SVG/1.1/DTD/svg11.dtd"><svg t="1600434239574" class="icon" viewBox="0 0 1024 1024" version="1.1" xmlns="http://www.w3.org/2000/svg" p-id="2141" xmlns:xlink="http://www.w3.org/1999/xlink" width="16" height="16"><defs><style type="text/css"></style></defs><path d="M857.47 206.73c-93.05-95.92-236.62-139.6-330.63-139.6-165.6 0-289.96 57.22-380.2 174.92-26.98 35.19-45.97 78.36-54.92 124.83-30.99 161.17-7.93 295.44 68.51 399.05 120.45 163.23 328.8 189.41 341.78 190.88 1.67 0.2 3.44 0.32 5.3 0.32 10.27 0 23.09-3.46 33.45-13.3 13.15-12.49 18.71-31.01 16.52-55.02l-0.49-3.36c-15.97-78.67-13.06-134.57 8.39-161.68 19.91-25.12 58-26.32 91.6-27.35 4.58-0.16 9.02-0.28 13.28-0.49 85.65 7.26 152.5-9.68 198.82-50.41 70.85-62.33 74.71-162.69 76.8-216.84 2.51-83.13-27.99-159.88-88.21-221.95z m-29.6 392.18c-33.42 29.43-85.32 41.21-154.42 35.01l-2.15-0.18-2.16 0.1c-4.54 0.22-9.32 0.36-14.28 0.53-40.04 1.25-100.54 3.13-138.34 50.87-33.56 42.38-40.63 110.34-21.55 207.66-46.6-8.39-196.58-43.94-285.07-164.26-65.49-89.03-84.73-206.81-57.19-350.03 7.12-37.05 22.07-71.21 43.21-98.78 49.56-64.66 137.8-150.6 330.92-150.6 83.94 0 209.17 41.48 286.07 120.75 48.93 50.45 72.72 109.95 70.7 176.59-2.37 61.74-8.83 131.08-55.74 172.34z" fill="#666666" p-id="2142"></path><path d="M299.58 398.72c-31.31 0-56.69 25.38-56.69 56.69s25.38 56.7 56.69 56.7 56.7-25.38 56.7-56.7-25.39-56.69-56.7-56.69zM511.74 250.99c-31.31 0-56.7 25.38-56.7 56.69s25.38 56.7 56.7 56.7 56.69-25.38 56.69-56.7-25.38-56.69-56.69-56.69zM696.96 398.72c-31.31 0-56.7 25.38-56.7 56.69s25.38 56.7 56.7 56.7c31.31 0 56.7-25.38 56.7-56.7s-25.39-56.69-56.7-56.69z" fill="#666666" p-id="2143"></path></svg>