<?xml version="1.0" standalone="no"?><!DOCTYPE svg PUBLIC "-//W3C//DTD SVG 1.1//EN" "http://www.w3.org/Graphics/SVG/1.1/DTD/svg11.dtd"><svg t="1596348046996" class="icon" viewBox="0 0 1024 1024" version="1.1" xmlns="http://www.w3.org/2000/svg" p-id="3018" xmlns:xlink="http://www.w3.org/1999/xlink" width="16" height="16"><defs><style type="text/css"></style></defs><path d="M588.637091 468.270545l16.453818 16.453819-65.815273 65.838545-16.477091-16.453818 49.384728-49.384727-49.384728-49.338182 16.477091-16.477091 49.338182 49.361454z m-229.911273 16.453819l49.384727 49.384727-16.47709 16.453818L325.818182 484.724364l16.453818-16.453819L391.633455 418.909091l16.47709 16.453818-49.384727 49.361455zM486.4 697.018182l16.477091 16.453818-16.477091 16.453818-16.453818-16.453818-49.338182 49.361455-16.477091-16.453819-32.907636-32.907636-49.384728 49.361455-16.453818-16.453819L257.186909 698.181818H256V256h418.909091v232.727273h-23.272727v-116.363637H279.272727v315.019637l42.542546 42.542545 49.384727-49.361454 16.453818 16.453818 32.907637 32.907636 49.361454-49.361454 16.453818 16.453818zM279.272727 349.090909h372.363637v-69.818182H279.272727v69.818182zM512 0l442.181818 256v512L512 1024 69.818182 768V256L512 0z m0 28.276364L93.090909 270.149818v483.700364l418.909091 241.873454 418.909091-241.873454V270.149818L512 28.276364zM325.818182 302.545455h23.272727v23.272727h-23.272727v-23.272727z m46.545454 0h23.272728v23.272727h-23.272728v-23.272727z m46.545455 0h23.272727v23.272727h-23.272727v-23.272727z m60.997818 147.269818l16.453818 16.477091-49.338182 49.338181-16.47709-16.430545 49.361454-49.384727z m286.021818 163.188363l2.071273 5.050182-20.782545 25.134546a14.708364 14.708364 0 0 0 0 18.152727l19.735272 23.133091-2.071272 5.026909a107.496727 107.496727 0 0 1-19.735273 35.234909l-4.165818 5.026909-31.162182-5.026909c-6.237091-1.024-13.498182 3.025455-15.592727 9.053091l-10.379637 30.184727-5.189818 1.000727a113.245091 113.245091 0 0 1-51.944727 0l-6.237091-1.000727-10.402909-30.184727c-2.071273-6.050909-9.355636-10.077091-15.592728-9.076364l-32.186181 5.050182-4.165819-4.026182c-4.142545-5.026909-8.308364-10.077091-11.403636-16.104727a71.540364 71.540364 0 0 1-9.378909-20.130909L535.272727 684.474182l20.782546-24.157091a14.731636 14.731636 0 0 0 0-18.106182L535.272727 618.053818l2.094546-5.026909c5.189818-13.102545 11.403636-25.181091 20.759272-36.235636l4.165819-4.026182 31.162181 5.026909c6.237091 1.000727 13.498182-3.025455 15.592728-9.076364l11.403636-30.184727 5.213091-1.000727a144.244364 144.244364 0 0 1 50.920727 0l6.213818 1.000727 10.40291 29.207273c2.071273 6.027636 9.355636 10.053818 15.592727 10.053818l32.186182-4.026182 4.165818 4.026182c4.165818 5.026909 8.308364 10.053818 11.426909 16.104727 4.142545 6.050909 7.284364 12.078545 9.355636 19.106909z m-27.508363-6.958545l-6.306909-8.610909-20.014546 1.908363c-16.802909 1.908364-33.629091-7.68-38.888727-22.085818l-6.330182-17.268363a87.179636 87.179636 0 0 0-31.557818 0l-7.354182 18.222545c-5.259636 14.405818-23.133091 23.994182-38.912 21.131636l-18.944-2.885818c-5.259636 5.748364-8.401455 12.474182-11.566545 19.2l13.684363 14.382546c10.519273 11.52 10.519273 29.765818 0 42.24l-13.684363 14.382545c2.094545 3.84 3.165091 7.68 6.306909 11.52 2.094545 2.885818 3.165091 5.748364 5.259636 7.68l21.038545-2.885818c16.826182-1.908364 33.652364 7.68 38.912 22.085818l6.330182 18.222546a87.272727 87.272727 0 0 0 31.557818 0l7.354182-19.2c5.259636-14.382545 23.133091-23.970909 38.912-21.108364l18.944 2.885818c4.189091-5.771636 8.401455-12.474182 11.566546-19.2l-12.613818-13.428363a32.186182 32.186182 0 0 1-1.070546-41.262546l13.684364-15.36a102.167273 102.167273 0 0 1-6.306909-10.565818zM651.636364 698.181818a46.545455 46.545455 0 1 1 0-93.090909 46.545455 46.545455 0 0 1 0 93.090909z m0-23.272727a23.272727 23.272727 0 1 0 0-46.545455 23.272727 23.272727 0 0 0 0 46.545455z" p-id="3019"></path></svg>