<?xml version="1.0" standalone="no"?><!DOCTYPE svg PUBLIC "-//W3C//DTD SVG 1.1//EN" "http://www.w3.org/Graphics/SVG/1.1/DTD/svg11.dtd"><svg t="1596348094071" class="icon" viewBox="0 0 1035 1024" version="1.1" xmlns="http://www.w3.org/2000/svg" p-id="3163" xmlns:xlink="http://www.w3.org/1999/xlink" width="16.171875" height="16"><defs><style type="text/css"></style></defs><path d="M521.940396 872.148523c-99.807147 0-189.988052-41.333384-254.607792-107.851357l89.496313-99.201349L17.393135 580.033489l119.451556 328.975547 67.997674-75.387991c81.227999 81.227999 193.249329 131.470287 317.098032 131.470287 186.348152 0 346.222349-113.871467 413.950893-276.025591L832.519967 689.065741C771.694647 798.166555 655.196353 872.148523 521.940396 872.148523" p-id="3164"></path><path d="M509.462201 128.050398c132.196835 0 247.78234 72.65781 309.065078 180.223664l-100.08037 74.080206 315.811736 150.683884-51.872415-346.111832-88.776929 65.698305C815.148321 122.308627 672.487158 35.0861 509.462201 35.0861c-205.345832 0-378.456494 138.245597-431.696046 326.960657l97.646947 0C225.393423 225.64311 356.301915 128.050398 509.462201 128.050398" p-id="3165"></path><path d="M715.001437 545.6811l0-71.161736-30.224372 0c-4.476965-21.475104-12.969383-41.522696-24.728194-59.34562l22.531156-22.429849-50.248428-50.300616-22.830985 22.847357c-17.936511-11.585873-38.035268-19.891026-59.611679-24.080441l0-26.866904L478.784504 314.343291l0 27.607778c-20.476357 4.570085-39.513946 12.777001-56.465013 23.833825l-24.043602-23.987321-50.247404 50.247404 23.970948 23.946388c-11.532661 17.596773-19.797905 37.394678-24.118304 58.530045l-32.234145 0 0 71.160713 32.841989 0c4.546549 20.443611 12.778024 39.591717 24.037463 56.545854l-22.522969 22.563902 50.28629 50.240241 22.830985-22.822798c16.757662 10.843976 35.5691 18.84316 55.664787 23.242354l0 28.215622 71.104431 0 0-27.342742c21.312398-4.246721 41.181935-12.359492 58.812477-23.551392l21.696138 21.656229 50.243311-50.28629-21.116947-21.010523c11.564383-17.289782 20.020986-36.780695 24.608467-57.45148L715.001437 545.6811 715.001437 545.6811zM516.328585 630.015857c-67.425645 0-122.259508-54.380538-122.259508-121.254621s54.833863-121.266901 122.259508-121.266901c67.347874 0 122.29737 54.392818 122.29737 121.266901C638.625956 575.637366 583.677483 630.015857 516.328585 630.015857" p-id="3166"></path><path d="M515.341095 417.430134c-51.040467 0-92.602048 41.012066-92.602048 91.547019 0 50.466392 41.560558 91.536786 92.602048 91.536786 51.006697 0 92.52837-41.070394 92.52837-91.536786C607.869465 458.4422 566.347792 417.430134 515.341095 417.430134M515.341095 570.7081c-34.662451 0-62.798255-27.714202-62.798255-61.730946 0-34.072003 28.135804-61.797461 62.798255-61.797461 34.583656 0 62.724577 27.725458 62.724577 61.797461C578.065671 542.993898 549.924751 570.7081 515.341095 570.7081" p-id="3167"></path><path d="M515.341095 477.002928c-18.277272 0-33.06814 14.297634-33.06814 31.951713 0 17.632589 14.791891 32.026414 33.06814 32.026414 18.165732 0 32.993438-14.391778 32.993438-32.026414C548.335556 491.300562 533.506826 477.002928 515.341095 477.002928" p-id="3168"></path></svg>