<?xml version="1.0" standalone="no"?><!DOCTYPE svg PUBLIC "-//W3C//DTD SVG 1.1//EN" "http://www.w3.org/Graphics/SVG/1.1/DTD/svg11.dtd"><svg t="1596342274925" class="icon" viewBox="0 0 1024 1024" version="1.1" xmlns="http://www.w3.org/2000/svg" p-id="1539" xmlns:xlink="http://www.w3.org/1999/xlink" width="16" height="16"><defs><style type="text/css"></style></defs><path d="M934.857143 237.828571V91.428571c0-20.228571-16.342857-36.571429-36.571429-36.571428H125.714286c-20.228571 0-36.571429 16.342857-36.571429 36.571428v146.4c-19.085714 1.142857-34.285714 17.028571-34.285714 36.457143v150.514286a202.285714 202.285714 0 0 0 16.457143 80.457143c4.914286 11.657143 10.971429 22.628571 17.828571 33.028571v394.285715c0 20.114286 16.342857 36.571429 36.571429 36.571428h772.571428c20.228571 0 36.571429-16.342857 36.571429-36.571428V538.285714a200 200 0 0 0 17.828571-33.028571c10.857143-25.485714 16.457143-52.571429 16.457143-80.457143V274.285714c0-19.428571-15.2-35.314286-34.285714-36.457143zM171.428571 137.142857h681.142858v100.571429H171.428571v-100.571429z m413.714286 749.828572H438.857143V768h146.285714v118.971429z m267.428572 0H658.285714V731.428571c0-20.228571-16.342857-36.571429-36.571428-36.571428H402.285714c-20.228571 0-36.571429 16.342857-36.571428 36.571428v155.542858H171.428571V610.171429c3.314286 1.6 6.742857 3.2 10.285715 4.571428 25.485714 10.742857 52.571429 16.114286 80.457143 16.114286s54.857143-5.371429 80.457142-16.114286c15.771429-6.628571 30.628571-15.085714 44.228572-25.257143 0.228571-0.114286 0.457143-0.114286 0.685714 0a206.171429 206.171429 0 0 0 44.228572 25.257143c25.485714 10.742857 52.571429 16.114286 80.457142 16.114286 27.885714 0 54.857143-5.371429 80.457143-16.114286 15.771429-6.628571 30.628571-15.085714 44.228572-25.257143 0.228571-0.114286 0.457143-0.114286 0.685714 0a206.171429 206.171429 0 0 0 44.228571 25.257143c25.485714 10.742857 52.571429 16.114286 80.457143 16.114286 27.885714 0 54.857143-5.371429 80.457143-16.114286 3.428571-1.485714 6.857143-2.971429 10.285714-4.571428v276.8z m34.285714-462.171429c0 68.342857-56 123.771429-124.914286 123.771429-46.628571 0-87.314286-25.257143-108.8-62.742858-3.314286-5.714286-9.257143-9.257143-15.885714-9.257142h-0.685714c-6.514286 0-12.571429 3.542857-15.885715 9.257142A124.845714 124.845714 0 0 1 512 548.571429c-46.514286 0-87.085714-25.142857-108.571429-62.514286-3.428571-5.828571-9.6-9.485714-16.342857-9.485714s-13.028571 3.657143-16.342857 9.485714a125.291429 125.291429 0 0 1-108.685714 62.514286C193.142857 548.571429 137.142857 493.142857 137.142857 424.8v-104.228571c0-0.342857 0.228571-0.571429 0.571429-0.571429h748.571428c0.342857 0 0.571429 0.228571 0.571429 0.571429v104.228571z" p-id="1540"></path></svg>